<svg width="13" height="13" viewBox="0 0 13 13" fill="currentColor" xmlns="http://www.w3.org/2000/svg">
<path d="M9.51743 8.69325L12.0158 11.1911L11.1904 12.0165L8.6926 9.51808C7.7632 10.2631 6.60718 10.6684 5.41602 10.6667C2.51802 10.6667 0.166016 8.31466 0.166016 5.41666C0.166016 2.51866 2.51802 0.166664 5.41602 0.166664C8.31402 0.166664 10.666 2.51866 10.666 5.41666C10.6677 6.60783 10.2625 7.76384 9.51743 8.69325ZM8.34727 8.26041C9.08758 7.4991 9.50102 6.47858 9.49935 5.41666C9.49935 3.16033 7.67177 1.33333 5.41602 1.33333C3.15968 1.33333 1.33268 3.16033 1.33268 5.41666C1.33268 7.67241 3.15968 9.5 5.41602 9.5C6.47793 9.50167 7.49845 9.08823 8.25977 8.34791L8.34727 8.26041Z" />
</svg>
